:SAMPLES-PER-SECOND 30
:FULLY-SPECIFIED
:DEGREES
670
root  -65.0332 39.771 -0.383574 -138.37 -86.7138 134.309
RightUpLeg  -15.4114 5.02454 -8.1028
RightLeg  25.9436 2.37613 1.04203
RightFoot  -9.86958 -0.173806 7.70579
RightToes  5.47152e-009 0 -3.6325e-017
Spine  11.3151 -0.297881 4.17699
Spine1  11.1089 3.3687 -11.9039
HEad  -9.27702 6.91323 -7.93852
LeftShoulder1  1.10849 -1.13675 -17.207
LeftArm  -15.4629 -51.5876 -50.6087
LeftForeArm  -3.06844 -38.9262 -9.22887
LeftHand  0.00199794 7.36035 2.27873
RightShoulder  0.898523 1.63775 10.2846
RightArm  -10.9522 57.5591 35.1201
RightForeArm  -39.6933 13.3506 4.6076
RightHand  0.190624 0.96831 3.39114
LeftUpLeg  -13.4474 4.89533 -2.85103
LeftLeg  14.6905 -3.21372 -1.76645
LeftFoot  -0.562366 -0.0765555 0.848726
LeftToes  -4.29285e-010 1.49941e-010 2.15559e-012
671
root  -64.9255 39.7582 -0.379007 -149.156 -85.5 145.736
RightUpLeg  -15.3138 6.05143 -7.92159
RightLeg  21.1185 2.83331 0.98141
RightFoot  -7.41149 -0.25134 7.02118
RightToes  5.47152e-009 0 -3.6325e-017
Spine  13.4117 0.0688242 4.18112
Spine1  9.69608 3.68639 -11.5698
HEad  -8.99221 5.25681 -7.62306
LeftShoulder1  1.20741 -1.57951 -17.0699
LeftArm  -17.8001 -53.406 -48.9757
LeftForeArm  -5.35347 -38.1751 -9.1252
LeftHand  0.00374818 7.18211 2.55084
RightShoulder  0.925883 2.55687 7.7387
RightArm  -13.976 59.0555 33.4907
RightForeArm  -39.8741 11.6599 3.89418
RightHand  0.214603 1.42643 3.55413
LeftUpLeg  -14.1596 5.34662 -2.81642
LeftLeg  14.5178 -2.1244 -1.66813
LeftFoot  -0.402916 -0.0861847 0.914414
LeftToes  -4.29285e-010 1.49941e-010 2.15559e-012
672
root  -64.7669 39.8493 -0.333967 -154.541 -85.2253 152.158
RightUpLeg  -15.8304 5.16026 -7.24705
RightLeg  18.2504 3.89001 1.24374
RightFoot  -2.5645 -0.293336 3.37784
RightToes  5.47152e-009 0 -3.6325e-017
Spine  14.9596 -0.154876 5.47542
Spine1  9.13262 3.69773 -11.7599
HEad  -10.2747 3.81782 -7.03359
LeftShoulder1  1.18793 -1.7402 -15.8843
LeftArm  -21.3852 -55.7476 -47.4154
LeftForeArm  -3.22873 -37.0754 -8.65694
LeftHand  0.00140225 7.22031 2.42897
RightShoulder  0.876783 2.7506 6.34073
RightArm  -17.9021 61.4082 30.4201
RightForeArm  -40.2312 10.1104 3.19789
RightHand  0.218676 0.323605 4.41722
LeftUpLeg  -14.864 5.59953 -2.56053
LeftLeg  13.1688 -2.06645 -1.66179
LeftFoot  0.934324 -0.167152 1.50745
LeftToes  -4.29285e-010 1.49941e-010 2.15559e-012
673
root  -64.5785 39.8341 -0.354101 -158.361 -85.0275 157.188
RightUpLeg  -16.8347 5.81144 -7.09181
RightLeg  17.0667 3.03229 0.765341
RightFoot  -2.43146 -0.452781 5.61357
RightToes  5.47152e-009 0 -3.6325e-017
Spine  15.7062 -0.39949 6.57943
Spine1  9.55948 3.86609 -12.4245
HEad  -11.6986 2.17505 -6.45053
LeftShoulder1  1.17859 -2.03219 -14.3778
LeftArm  -22.4905 -58.2587 -46.7569
LeftForeArm  -11.7935 -36.8186 -9.05715
LeftHand  0.0166444 6.85155 3.87674
RightShoulder  0.798265 2.757 4.91376
RightArm  -23.3629 63.0559 26.7824
RightForeArm  -40.147 9.71267 2.14729
RightHand  0.179403 -0.191334 4.06018
LeftUpLeg  -16.5758 5.24381 -2.37527
LeftLeg  13.275 -1.43926 -1.26253
LeftFoot  1.57264 -0.213747 1.80167
LeftToes  -4.29285e-010 1.49941e-010 2.15559e-012
674
root  -64.4189 39.8714 -0.342129 -165.011 -84.3424 164.522
RightUpLeg  -17.3206 3.76142 -6.25291
RightLeg  15.6732 5.55073 1.20481
RightFoot  -0.857138 -0.471508 5.06872
RightToes  5.47152e-009 0 -3.6325e-017
Spine  17.7437 -0.656635 7.72203
Spine1  8.51948 3.97425 -13.1229
HEad  -12.098 1.42936 -6.08176
LeftShoulder1  1.17963 -2.31372 -13.2901
LeftArm  -25.0791 -59.7107 -45.336
LeftForeArm  -14.9158 -36.1742 -9.024
LeftHand  0.017471 6.7058 4.29209
RightShoulder  0.719894 2.75349 3.49392
RightArm  -26.6958 65.0779 22.3741
RightForeArm  -41.296 8.12899 2.00903
RightHand  0.131354 -0.225631 2.99047
LeftUpLeg  -17.3225 4.91754 -1.91414
LeftLeg  12.8176 -0.328425 -0.875847
LeftFoot  2.39423 -0.283969 2.23968
LeftToes  -4.29285e-010 1.49941e-010 2.15559e-012
675
root  -64.3087 39.8828 -0.370397 -165.935 -83.9958 166.268
RightUpLeg  -17.9074 1.40938 -5.75423
RightLeg  14.62 7.87694 1.53983
RightFoot  -0.120764 -0.518726 5.26512
RightToes  5.47152e-009 0 -3.6325e-017
Spine  18.3819 -1.14328 8.55069
Spine1  8.79556 4.06166 -14.5393
HEad  -12.5326 0.752948 -4.70447
LeftShoulder1  1.0815 -2.61472 -10.3952
LeftArm  -29.9969 -60.4778 -43.9148
LeftForeArm  -12.6537 -35.1218 -8.58829
LeftHand  0.0217462 6.96243 4.15072
RightShoulder  0.685854 2.54314 3.30674
RightArm  -30.5674 67.7425 16.6346
RightForeArm  -42.4319 5.28253 2.15254
RightHand  0.173706 0.103043 3.68249
LeftUpLeg  -18.201 4.03833 -1.80724
LeftLeg  12.3917 0.965239 -0.329068
LeftFoot  3.13843 -0.309695 2.28743
LeftToes  -4.29285e-010 1.49941e-010 2.15559e-012
676
root  -64.2445 39.9026 -0.444896 -164.105 -84.0478 164.895
RightUpLeg  -18.0149 -0.547882 -5.44945
RightLeg  13.7181 9.45333 1.62842
RightFoot  0.209636 -0.608291 6.02652
RightToes  5.47152e-009 0 -3.6325e-017
Spine  19.1417 -1.5024 9.14228
Spine1  8.6595 4.01611 -15.3092
HEad  -12.2826 -0.0899984 -3.67939
LeftShoulder1  1.06138 -2.7874 -9.5006
LeftArm  -30.5762 -62.891 -40.8721
LeftForeArm  -20.2196 -34.0291 -8.64903
LeftHand  0.0272644 6.44885 5.91113
RightShoulder  0.646284 2.67657 2.32353
RightArm  -33.6728 68.8635 13.5097
RightForeArm  -42.6111 2.93084 1.77398
RightHand  0.164635 -0.149838 3.68837
LeftUpLeg  -18.574 3.55202 -1.85029
LeftLeg  11.8357 1.22546 -0.180462
LeftFoot  3.81951 -0.334883 2.34394
LeftToes  -4.29285e-010 1.49941e-010 2.15559e-012
677
root  -64.2114 39.9567 -0.546595 -163.099 -84.1634 164.626
RightUpLeg  -18.4244 -1.61221 -4.99481
RightLeg  12.8561 10.2822 1.44925
RightFoot  0.987578 -0.602891 5.63945
RightToes  5.47152e-009 0 -3.6325e-017
Spine  19.5197 -1.38638 9.02692
Spine1  8.48474 3.82267 -14.2179
HEad  -12.3374 -1.21411 -3.17962
LeftShoulder1  1.05953 -2.76011 -9.5559
LeftArm  -32.198 -64.4235 -38.5507
LeftForeArm  -20.5776 -31.9241 -8.0719
LeftHand  0.0252815 6.46661 5.68181
RightShoulder  0.589857 3.05705 0.615827
RightArm  -36.2229 69.3416 11.9316
RightForeArm  -41.9217 1.21459 1.07985
RightHand  0.172557 -0.1012 3.81697
LeftUpLeg  -18.8887 3.16202 -1.70414
LeftLeg  10.7302 1.27228 -0.165151
LeftFoot  4.58239 -0.347276 2.28235
LeftToes  -4.29285e-010 1.49941e-010 2.15559e-012
678
root  -64.2199 40.0135 -0.684268 -164.805 -84.3474 166.752
RightUpLeg  -18.3127 -2.24471 -4.28022
RightLeg  11.8232 10.7585 1.17834
RightFoot  1.61289 -0.600308 5.37904
RightToes  5.47152e-009 0 -3.6325e-017
Spine  19.9831 -1.30358 9.65808
Spine1  8.52854 4.02529 -14.0944
HEad  -12.7067 -2.18341 -2.98033
LeftShoulder1  1.07234 -2.9698 -9.16194
LeftArm  -34.0632 -65.9635 -36.1638
LeftForeArm  -18.9876 -29.5539 -7.37216
LeftHand  0.000615353 6.69989 3.19991
RightShoulder  0.580384 3.024 0.51254
RightArm  -39.1237 69.9973 9.24125
RightForeArm  -41.3134 0.0721986 0.672287
RightHand  0.142443 -0.739952 3.69295
LeftUpLeg  -18.9692 3.41896 -1.26726
LeftLeg  10.0469 0.924415 -0.347219
LeftFoot  4.99368 -0.379526 2.43454
LeftToes  -4.29285e-010 1.49941e-010 2.15559e-012
679
root  -64.2588 40.0629 -0.809068 -164.255 -84.6592 166.693
RightUpLeg  -18.3076 -2.84011 -3.90701
RightLeg  10.9904 11.0815 1.013
RightFoot  2.00719 -0.590873 5.16353
RightToes  5.47152e-009 0 -3.6325e-017
Spine  20.0513 -1.2163 10.0907
Spine1  8.73725 4.12414 -13.7221
HEad  -12.7125 -3.39906 -2.59826
LeftShoulder1  1.07579 -2.88446 -9.47147
LeftArm  -35.2864 -67.6822 -34.3941
LeftForeArm  -17.5235 -27.0678 -6.68633
LeftHand  -0.0123447 8.36265 1.1852
RightShoulder  0.550117 3.14531 -0.191363
RightArm  -40.9187 70.3746 7.21934
RightForeArm  -41.7152 -1.11689 0.51002
RightHand  0.142007 -0.720869 3.65649
LeftUpLeg  -19.0722 3.28655 -1.05913
LeftLeg  9.28782 0.645065 -0.406451
LeftFoot  5.34271 -0.351073 2.16805
LeftToes  -4.29285e-010 1.49941e-010 2.15559e-012
680
root  -64.3175 40.1071 -0.937501 -161.591 -85.2577 164.339
RightUpLeg  -18.2458 -3.67625 -3.77313
RightLeg  10.6053 11.2353 1.08503
RightFoot  2.22912 -0.559945 4.82938
RightToes  5.47152e-009 0 -3.6325e-017
Spine  20.2385 -1.23006 10.2276
Spine1  8.63551 3.93498 -13.0204
HEad  -13.0952 -4.05381 -2.51165
LeftShoulder1  1.10069 -2.86469 -9.9647
LeftArm  -36.4005 -68.7971 -32.1028
LeftForeArm  -16.361 -24.9708 -6.13604
LeftHand  -0.0554053 9.10191 -0.194209
RightShoulder  0.501997 3.28852 -1.20806
RightArm  -41.0623 70.2049 7.32402
RightForeArm  -41.4844 -1.55481 0.309319
RightHand  0.133838 -0.838471 3.50083
LeftUpLeg  -18.9395 3.10934 -1.02227
LeftLeg  8.44489 0.211827 -0.495266
LeftFoot  5.73956 -0.340282 2.02989
LeftToes  -4.29285e-010 1.49941e-010 2.15559e-012
681
root  -64.3817 40.1639 -1.08157 -156.485 -85.6963 158.834
RightUpLeg  -17.4938 -4.19397 -3.87413
RightLeg  10.356 11.2682 1.05504
RightFoot  2.20989 -0.534285 4.62475
RightToes  5.47152e-009 0 -3.6325e-017
Spine  20.7325 -1.24492 9.88838
Spine1  8.78474 3.80276 -12.5949
HEad  -13.2488 -4.74242 -1.95313
LeftShoulder1  1.1059 -3.07139 -9.44609
LeftArm  -38.3512 -69.1418 -30.1299
LeftForeArm  -14.6257 -24.0953 -5.86228
LeftHand  -0.095631 9.34246 -1.23466
RightShoulder  0.522239 3.32194 -0.902073
RightArm  -40.8895 69.8433 7.57203
RightForeArm  -41.8009 -1.07982 0.319813
RightHand  0.241052 0.316212 4.91728
LeftUpLeg  -17.8383 2.96808 -1.12727
LeftLeg  7.25378 -0.131423 -0.577346
LeftFoot  6.28891 -0.335337 1.94516
LeftToes  -4.29285e-010 1.49941e-010 2.15559e-012
